<svg  xmlns="http://www.w3.org/2000/svg" xmlns:xlink="http://www.w3.org/1999/xlink">
	<symbol viewbox="0 0 40 40" id="medium">
		<path d="M4.91,6.44a1.55,1.55,0,0,0-.5-1.3L.7.67V0H12.23l8.91,19.55L29,0H40V.67l-3.17,3a.93.93,0,0,0-.35.89V27a.93.93,0,0,0,.35.89l3.1,3v.67H24.3V30.9l3.22-3.12c.31-.31.31-.41.31-.89V8.82L18.89,31.5H17.68L7.29,8.82V24a2.07,2.07,0,0,0,.58,1.74L12,30.83v.67H.2v-.66l4.18-5.07A2,2,0,0,0,4.91,24Z" transform="translate(-0.2)"/>
	</symbol>
	<symbol viewbox="0 0 20 20" id="twitter">
		<path d="M35.89,8.1c0,.36,0,.71,0,1.07,0,10.84-8.25,23.32-23.32,23.32A23.17,23.17,0,0,1,0,28.81a17,17,0,0,0,2,.1,16.42,16.42,0,0,0,10.18-3.5,8.21,8.21,0,0,1-7.66-5.69A10.34,10.34,0,0,0,6,19.85a8.67,8.67,0,0,0,2.16-.28,8.2,8.2,0,0,1-6.57-8v-.1a8.26,8.26,0,0,0,3.71,1,8.21,8.21,0,0,1-2.54-11,23.3,23.3,0,0,0,16.9,8.58,9.25,9.25,0,0,1-.2-1.88A8.21,8.21,0,0,1,33.68,2.59a16.14,16.14,0,0,0,5.2-2,8.18,8.18,0,0,1-3.6,4.52A16.43,16.43,0,0,0,40,3.86,17.62,17.62,0,0,1,35.89,8.1Z"/>
	</symbol>
	<symbol viewbox="0 0 40 40" id="linkedin">
		<path d="M11,32.49H4.29V10.8H11ZM7.65,7.84a3.92,3.92,0,1,1,3.9-3.94A3.93,3.93,0,0,1,7.65,7.84ZM36.24,32.49H29.52V21.93c0-2.52-.05-5.74-3.5-5.74s-4,2.73-4,5.56V32.49H15.25V10.8h6.46v3h.09a7.08,7.08,0,0,1,6.37-3.5c6.82,0,8.07,4.49,8.07,10.32V32.49Z" transform="translate(-3.75)"/>
	</symbol>
	<symbol viewbox="0 0 40 40" id="github">
		<path d="M14.5,26.12c0,.13-.15.24-.35.24s-.37-.09-.37-.24.15-.24.35-.24S14.5,26,14.5,26.12Zm-2.08-.3c0,.13.09.29.29.33a.31.31,0,0,0,.41-.13c0-.13-.09-.29-.29-.35a.34.34,0,0,0-.41.15Zm3-.11c-.19,0-.33.17-.31.33s.19.22.39.17.33-.17.31-.31S15.58,25.69,15.38,25.71ZM19.79.06A16,16,0,0,0,3.4,16.39a16.78,16.78,0,0,0,11.34,16c.86.15,1.16-.37,1.16-.81s0-2.7,0-4.11c0,0-4.68,1-5.67-2,0,0-.76-1.95-1.86-2.45,0,0-1.53-1.05.11-1A3.53,3.53,0,0,1,11,23.73a3.54,3.54,0,0,0,4.88,1.4A3.72,3.72,0,0,1,17,22.88c-3.74-.41-7.52-1-7.52-7.4a5.07,5.07,0,0,1,1.58-3.94A6.32,6.32,0,0,1,11.23,7c1.4-.44,4.62,1.81,4.62,1.81a15.81,15.81,0,0,1,8.41,0S27.48,6.55,28.87,7A6.32,6.32,0,0,1,29,11.54a5.2,5.2,0,0,1,1.73,3.94c0,6.46-3.94,7-7.68,7.4A4,4,0,0,1,24.23,26c0,2.26,0,5,0,5.6s.31,1,1.16.81a16.62,16.62,0,0,0,11.23-16C36.6,7.11,29.07.06,19.79.06ZM9.91,23.14c-.09.07-.07.22,0,.35s.26.15.35.07.07-.22,0-.35S10,23.06,9.91,23.14Zm-.72-.54c0,.09,0,.19.15.26a.2.2,0,0,0,.29,0c0-.09,0-.19-.15-.26S9.23,22.53,9.18,22.6ZM11.35,25c-.11.09-.07.29.09.41s.35.17.44.07,0-.29-.09-.41S11.44,24.88,11.35,25Zm-.76-1c-.11.07-.11.24,0,.39s.29.22.37.15a.31.31,0,0,0,0-.41c-.09-.15-.27-.22-.37-.13Z" transform="translate(-3.4 -0.06)" />
	</symbol>
</svg>
